<svg xmlns="http://www.w3.org/2000/svg" xmlns:xlink="http://www.w3.org/1999/xlink" aria-hidden="true">
    <defs>
        <symbol id='home_vpd'>
           <g clip-path="url(#clip0_890_393)">
                <path d="M4.54798 19.9706C4.07671 19.8677 3.62037 19.5159 3.39784 19.0839L3.26206 18.8204L3.25048 15.038L3.23891 11.2556L2.61285 11.2549C1.59413 11.2535 1.26023 11.1782 0.924425 10.8738C0.423624 10.4199 0.406516 9.61181 0.887215 9.117C0.954142 9.0481 3.49978 6.99676 6.54419 4.55846C11.8713 0.291887 12.0888 0.122757 12.3291 0.060775C12.6593 -0.0244275 12.9088 -0.0204675 13.246 0.0753309C13.5651 0.165934 12.7702 -0.459902 20.2053 5.55485C22.6953 7.56916 24.7742 9.27787 24.8251 9.35198C25.1405 9.81081 24.9969 10.5686 24.5285 10.9175C24.15 11.1993 23.8853 11.2556 22.9401 11.2556H22.2899L22.2784 15.0381L22.2668 18.8205L22.131 19.084C21.9553 19.4251 21.6489 19.7069 21.2779 19.8685L20.9914 19.9933L12.8496 19.9994C8.20624 20.0029 4.63934 19.9905 4.54831 19.9707L4.54798 19.9706ZM8.60901 13.6306C8.76459 13.257 10.4259 9.07103 10.4259 9.05259C10.4259 9.03862 10.1893 9.0272 9.89999 9.0272H9.37406L9.26469 9.31063C9.20454 9.46652 8.89581 10.2876 8.57862 11.1353C8.26146 11.983 7.9954 12.6826 7.9874 12.6899C7.97937 12.6973 7.77856 12.1852 7.54107 11.552C7.30359 10.9188 6.99244 10.0917 6.84964 9.71396L6.58999 9.0272H6.06332C5.71776 9.0272 5.53665 9.04158 5.53665 9.06901C5.53665 9.10039 7.0443 12.9112 7.31815 13.572L7.36269 13.6795H7.97567C8.42685 13.6795 8.59402 13.6666 8.60901 13.6306ZM12.0415 12.806V11.9324L12.6899 11.9069C13.5575 11.8726 13.8446 11.798 14.2396 11.5038C14.7811 11.1006 14.8753 10.1741 14.43 9.6323C14.2343 9.39426 14.0136 9.25362 13.6571 9.13982C13.4027 9.0586 13.289 9.05034 12.2222 9.03569L11.0637 9.01979V11.3496V13.6795H11.5526H12.0415V12.806ZM12.0415 10.4767V9.80909H12.5956C13.2071 9.80909 13.3705 9.84707 13.5223 10.0245C13.7206 10.2563 13.7346 10.63 13.554 10.8766C13.4034 11.0823 13.276 11.1173 12.6261 11.1315L12.0415 11.1442V10.4767ZM18.1883 13.5503C19.0327 13.2933 19.6256 12.7008 19.8001 11.9397C20.0532 10.8365 19.5541 9.76019 18.5889 9.32765C18.0327 9.07837 17.8887 9.05733 16.6013 9.03715L15.4427 9.01898V11.3528V13.6867L16.6438 13.6707C17.8085 13.6553 17.8553 13.6516 18.1883 13.5503ZM16.4631 11.3533V9.80909L16.8139 9.81027C17.6078 9.813 18.0814 9.94025 18.3911 10.234C18.976 10.789 18.9769 11.9456 18.3929 12.4826C18.072 12.7777 17.6364 12.8969 16.8777 12.8973L16.4632 12.8976L16.4631 11.3533Z" />
            </g>
            <clipPath id="clip0_890_393">
                <rect fill="white" transform="translate(0.537476)"/>
            </clipPath>
        </symbol>

        <symbol id='home_water'>
            <g clip-path="url(#clip0_890_398)"> 
                <path d="M4.69971 19.9889C4.69745 19.9828 4.65666 19.9703 4.60909 19.9612C4.43049 19.9269 4.2965 19.8827 4.18646 19.8218C4.13752 19.7946 4.08747 19.7692 4.07524 19.7651C4.04197 19.7541 3.78853 19.5695 3.74321 19.5232C3.72152 19.5011 3.67693 19.4523 3.64412 19.4148C3.61132 19.3773 3.58146 19.3441 3.57777 19.3409C3.5568 19.3232 3.51545 19.2598 3.51545 19.2455C3.51545 19.2362 3.50932 19.2252 3.50183 19.2209C3.49434 19.2166 3.48025 19.1972 3.47052 19.1776C3.46079 19.1581 3.44051 19.1216 3.42545 19.0966C3.37258 19.0089 3.31373 18.8478 3.29259 18.733C3.25438 18.5255 3.25357 18.4243 3.26143 14.8638C3.26788 11.9422 3.26639 11.2751 3.25338 11.2593C3.23871 11.2414 3.18051 11.2394 2.53921 11.2352C1.83577 11.2306 1.648 11.2215 1.5329 11.1868C1.29951 11.1163 1.12935 11.0332 1.0196 10.936C0.996012 10.9152 0.973298 10.8981 0.969125 10.8981C0.964954 10.8981 0.923084 10.8564 0.876084 10.8056C0.829085 10.7547 0.783952 10.7067 0.775792 10.699C0.767632 10.6913 0.757356 10.6717 0.752955 10.6556C0.748556 10.6395 0.737158 10.6203 0.72763 10.6131C0.718102 10.6058 0.710306 10.5932 0.710306 10.585C0.710306 10.5769 0.703338 10.5634 0.694824 10.5552C0.661452 10.5228 0.580965 10.2957 0.567682 10.1964C0.563291 10.1636 0.554662 10.1339 0.548502 10.1304C0.533624 10.122 0.533885 9.80722 0.548782 9.80722C0.555089 9.80722 0.564068 9.77781 0.568734 9.74188C0.573399 9.70594 0.587701 9.64859 0.600516 9.61444C0.613331 9.58028 0.623814 9.54543 0.623814 9.53701C0.623814 9.52257 0.671852 9.42403 0.697054 9.38678C0.703395 9.3774 0.729581 9.3365 0.755244 9.29587C0.822634 9.1892 0.953699 9.05622 1.13047 8.91516C1.21543 8.84737 1.31569 8.76595 1.35328 8.73424C1.39086 8.70253 1.44572 8.65868 1.47519 8.63681C1.50466 8.61493 1.55048 8.57914 1.57701 8.55726C1.70794 8.44932 1.77021 8.39918 1.95842 8.25016C2.17257 8.08061 2.29288 7.98405 2.32718 7.95423C2.33846 7.94442 2.38661 7.90598 2.43418 7.86882C2.51296 7.80728 2.5824 7.75186 2.61818 7.72197C2.64665 7.69818 2.84658 7.538 2.91589 7.48344C2.9556 7.45219 2.99651 7.41896 3.00682 7.40958C3.01713 7.40021 3.04351 7.37942 3.06545 7.36338C3.10268 7.33617 3.17185 7.28099 3.34227 7.14255C3.44096 7.06238 3.64511 6.89874 3.72554 6.83534C3.76292 6.80587 3.81019 6.76838 3.83058 6.75202C4.17485 6.47579 4.37012 6.31838 4.4052 6.28883C4.42899 6.26878 4.46514 6.24064 4.48553 6.22628C4.50592 6.21193 4.52538 6.19708 4.52878 6.19327C4.53431 6.18708 4.91608 5.88054 5.12144 5.71739C5.16534 5.68251 5.21817 5.64 5.23884 5.62292C5.38312 5.50369 5.42569 5.46972 5.45979 5.44658C5.48104 5.43216 5.52355 5.39851 5.55425 5.37181C5.58494 5.3451 5.67095 5.27494 5.74538 5.21589C5.81981 5.15685 5.88966 5.10087 5.90059 5.09149C5.91152 5.08212 5.95322 5.04888 5.99326 5.01763C6.07402 4.95459 6.14708 4.8967 6.20322 4.85127C6.33575 4.744 6.56615 4.55854 6.59647 4.53469C6.74114 4.42095 6.86009 4.32527 6.87052 4.31426C6.87731 4.30709 6.89956 4.28947 6.91995 4.27512C6.94034 4.26077 6.98204 4.22754 7.01263 4.20127C7.04321 4.175 7.09863 4.13062 7.13578 4.10264C7.17292 4.07465 7.22083 4.03642 7.24224 4.01767C7.2978 3.969 7.34207 3.93371 7.4266 3.87071C7.46738 3.84032 7.50353 3.812 7.50693 3.80777C7.5138 3.79923 7.98252 3.42291 8.05066 3.37124C8.09804 3.3353 8.21499 3.24073 8.31449 3.1579C8.34949 3.12876 8.40033 3.08871 8.42747 3.06889C8.45461 3.04907 8.47963 3.02922 8.48308 3.02477C8.4894 3.01661 8.72523 2.82729 8.85989 2.72226C8.89996 2.69102 8.94168 2.65778 8.95261 2.6484C8.96354 2.63903 9.01114 2.60077 9.05839 2.56339C9.10564 2.526 9.16098 2.48177 9.18137 2.46509C9.32494 2.34767 9.47717 2.22505 9.53925 2.17683C9.57948 2.14558 9.62122 2.11235 9.632 2.10297C9.64278 2.0936 9.67092 2.07119 9.69453 2.05317C9.71814 2.03516 9.7736 1.99095 9.81778 1.95493C9.86195 1.91891 9.94815 1.84988 10.0093 1.80153C10.0705 1.75317 10.1567 1.68399 10.2009 1.6478C10.2734 1.58837 10.3377 1.5369 10.4616 1.43916C10.5169 1.39553 10.9836 1.02083 11.0484 0.968028C11.0762 0.945397 11.1288 0.90387 11.1653 0.875746C11.2018 0.847622 11.2656 0.796487 11.3071 0.762114C11.3955 0.688859 11.4335 0.658395 11.6158 0.514466C11.7758 0.38813 11.9015 0.286994 11.9327 0.259568C12.0496 0.15676 12.2666 0.0642013 12.4592 0.0350271C12.5085 0.0275611 12.5488 0.0168011 12.5488 0.0111162C12.5488 -0.00674354 12.9984 -0.00173889 13.039 0.0165718C13.0582 0.0252575 13.1268 0.0438229 13.1914 0.0578285C13.3915 0.101243 13.6366 0.224851 13.7893 0.359449C13.8058 0.373978 13.9018 0.45117 14.0004 0.529168C14.0399 0.560417 14.0929 0.603881 14.1182 0.625755C14.1434 0.64763 14.1965 0.691094 14.236 0.722342C14.337 0.802096 14.5116 0.943501 14.5563 0.981839C14.577 0.999566 14.6132 1.02769 14.6368 1.04434C14.6603 1.06098 14.6885 1.08227 14.6993 1.09165C14.757 1.14181 14.9242 1.27811 14.9673 1.31026C15.0135 1.34467 15.2412 1.53087 15.2551 1.54561C15.2585 1.54922 15.2916 1.57511 15.3288 1.60315C15.3659 1.63118 15.4138 1.66946 15.4352 1.68821C15.4893 1.73559 15.613 1.83592 15.7435 1.9382C15.7833 1.96945 15.8334 2.01036 15.8547 2.02911C15.876 2.04786 15.9431 2.10146 16.0037 2.14823C16.0643 2.195 16.1253 2.24358 16.1392 2.25618C16.1876 2.30007 16.3583 2.4383 16.385 2.45523C16.3997 2.4646 16.4365 2.49346 16.4667 2.51934C16.5853 2.62084 16.6596 2.68196 16.7045 2.71476C16.7439 2.74347 16.9153 2.88365 16.9847 2.94385C16.9955 2.95322 17.0236 2.9755 17.0472 2.99335C17.1009 3.03393 17.2384 3.1447 17.282 3.18247C17.3209 3.21617 17.3632 3.24963 17.4543 3.31883C17.4914 3.34696 17.5358 3.38294 17.5531 3.39881C17.5822 3.42556 17.7282 3.54396 17.8469 3.637C17.8748 3.65888 17.9356 3.70814 17.982 3.74648C18.0284 3.78481 18.1192 3.85844 18.1838 3.91009C18.2484 3.96174 18.3457 4.04115 18.4 4.08655C18.4544 4.13195 18.5207 4.18504 18.5474 4.20454C18.5741 4.22403 18.6381 4.27509 18.6896 4.318C18.741 4.36091 18.809 4.41572 18.8407 4.43979C18.9028 4.48703 19.3484 4.84871 19.3995 4.89336C19.4176 4.90916 19.5202 4.99154 19.611 5.06308C19.6506 5.09433 19.6899 5.12614 19.6983 5.13378C19.7068 5.14141 19.7629 5.18687 19.823 5.23479C19.9845 5.36349 20.0955 5.45374 20.1706 5.51761C20.2074 5.54886 20.2467 5.57902 20.2579 5.58463C20.2692 5.59024 20.2872 5.60303 20.298 5.61304C20.3344 5.64667 20.5302 5.80872 20.5716 5.83945C20.6108 5.86857 20.6805 5.9245 20.7095 5.9502C20.7229 5.96203 20.8767 6.08602 21.038 6.21501C21.082 6.25018 21.1292 6.28949 21.143 6.30238C21.1568 6.31528 21.207 6.35562 21.2546 6.39203C21.3022 6.42844 21.3661 6.47933 21.3967 6.50513C21.4472 6.54766 21.5967 6.66872 21.7242 6.77024C21.7514 6.79188 21.8098 6.83914 21.854 6.87526C22.0601 7.04377 22.2614 7.2064 22.3543 7.27939C22.4103 7.3234 22.4646 7.36686 22.4749 7.37597C22.509 7.40597 22.6547 7.52353 22.711 7.56638C22.7704 7.61168 23.1572 7.92498 23.1898 7.9543C23.2172 7.97893 23.2781 8.02829 23.3799 8.10847C23.4769 8.18483 23.5427 8.23791 23.5659 8.25866C23.5745 8.26629 23.6307 8.31174 23.6909 8.35967C23.8526 8.48851 23.9634 8.57866 24.0385 8.64249C24.0753 8.67374 24.1151 8.70442 24.1269 8.71067C24.1388 8.71692 24.173 8.74311 24.203 8.76887C24.2831 8.83772 24.3145 8.86354 24.3948 8.92657C24.5531 9.05084 24.7386 9.21853 24.7627 9.25909C24.7691 9.26994 24.7778 9.28138 24.7819 9.28451C24.7893 9.2901 24.8235 9.33653 24.853 9.3811C24.8613 9.3936 24.883 9.43195 24.9013 9.46632C24.9195 9.50069 24.9418 9.54207 24.9508 9.55826C24.9598 9.57446 24.9708 9.61025 24.9752 9.63781C24.9797 9.66536 24.991 9.69923 25.0004 9.71307C25.0247 9.74893 25.0247 10.0702 25.0003 10.1059C24.9908 10.1197 24.9803 10.1656 24.9769 10.2079C24.9736 10.2501 24.9648 10.2914 24.9574 10.2996C24.95 10.3077 24.9377 10.3412 24.9301 10.3739C24.9181 10.4255 24.8963 10.4702 24.8085 10.6234C24.7581 10.7114 24.5681 10.9032 24.4576 10.9776C24.4251 10.9995 24.3915 11.0231 24.383 11.0301C24.3745 11.0371 24.3538 11.0466 24.3372 11.0513C24.3205 11.056 24.2985 11.066 24.2883 11.0734C24.2781 11.0809 24.242 11.099 24.208 11.1137C24.174 11.1284 24.1314 11.1472 24.1134 11.1556C24.0954 11.164 24.0659 11.1708 24.0479 11.1708C24.0299 11.1708 23.9985 11.1787 23.9781 11.1885C23.9089 11.2214 23.707 11.2311 23.0036 11.2354C22.4734 11.2387 22.3035 11.243 22.2958 11.2535C22.2903 11.2612 22.2885 11.5512 22.2919 11.898C22.2996 12.6936 22.3064 17.4753 22.3006 18.091C22.2983 18.3441 22.2914 18.5793 22.2854 18.6137C22.2579 18.7717 22.2065 18.963 22.1864 18.9824C22.1802 18.9884 22.1752 19.0006 22.1752 19.0096C22.1752 19.0282 22.1281 19.122 22.1059 19.1478C22.0978 19.1571 22.0706 19.2006 22.0454 19.2443C22.0202 19.2881 21.993 19.329 21.9849 19.3353C21.9769 19.3415 21.9376 19.385 21.8976 19.4318C21.8098 19.5348 21.8023 19.5416 21.6828 19.6284C21.6308 19.6662 21.5838 19.7039 21.5783 19.7122C21.5729 19.7205 21.561 19.7273 21.5518 19.7273C21.5427 19.7273 21.532 19.735 21.5281 19.7443C21.5242 19.7537 21.5119 19.7614 21.5009 19.7614C21.4898 19.7614 21.4287 19.7895 21.3652 19.8239C21.3017 19.8582 21.2415 19.8864 21.2315 19.8864C21.2215 19.8864 21.1976 19.8937 21.1783 19.9027C21.1278 19.9262 20.9647 19.966 20.9187 19.9659C20.8971 19.9659 20.8711 19.9736 20.8609 19.983C20.8444 19.9981 19.9293 20 12.7731 20C7.52997 20 4.70233 19.9961 4.69965 19.9889H4.69971ZM13.0245 17.1362C13.2638 17.1241 13.459 17.1035 13.667 17.0683C15.2193 16.8061 16.5486 15.8237 17.1741 14.4765C17.5109 13.7514 17.6294 12.9335 17.5033 12.2049C17.2481 10.7306 15.9962 8.3332 13.9517 5.40398C13.623 4.93308 12.9045 3.94814 12.8166 3.84812L12.7875 3.81493L12.6546 3.99016C12.4635 4.24221 11.8943 5.02808 11.6717 5.34716C9.60119 8.31594 8.35749 10.6827 8.08164 12.1792C7.93047 12.9992 8.09398 13.9229 8.53284 14.7279C9.08138 15.7342 10.0513 16.5202 11.2039 16.8927C11.6319 17.031 12.0799 17.1133 12.5257 17.1356C12.7833 17.1484 12.7817 17.1484 13.0245 17.1362ZM10.3553 14.8822C10.0472 14.8133 9.90021 14.5044 10.0582 14.258C10.075 14.2319 11.1552 13.2308 12.4587 12.0334C14.6846 9.98874 14.8333 9.85454 14.9045 9.82609C15.0535 9.76651 15.2108 9.77728 15.345 9.85626C15.5566 9.98083 15.6188 10.2054 15.4991 10.4128C15.4675 10.4676 15.0677 10.8395 13.1025 12.6425C11.625 13.998 10.7223 14.8181 10.6862 14.8375C10.6294 14.8681 10.5085 14.8982 10.448 14.8967C10.431 14.8963 10.3893 14.8898 10.3553 14.8822ZM14.497 14.8868C14.0539 14.8128 13.737 14.4929 13.7138 14.0964C13.6899 13.6889 13.9735 13.3292 14.4045 13.2202C14.5124 13.1929 14.7503 13.1931 14.8589 13.2206C15.3606 13.3473 15.659 13.8035 15.5328 14.2511C15.4657 14.4893 15.2884 14.6925 15.0538 14.8003C14.9912 14.829 14.9066 14.8605 14.8658 14.8703C14.7761 14.8917 14.5792 14.9005 14.497 14.8868V14.8868ZM10.8002 11.4816C10.2441 11.3993 9.88551 10.9153 10.0219 10.4313C10.1061 10.1326 10.3697 9.8894 10.6951 9.81023C10.8154 9.78097 11.0312 9.78412 11.1591 9.817C11.5467 9.91658 11.8199 10.2247 11.841 10.5861C11.8647 10.9908 11.5793 11.3553 11.1567 11.4601C11.0828 11.4785 10.8669 11.4915 10.8002 11.4816Z"/>
            </g>
            <clipPath id="clip0_890_398">
                <rect fill="white" transform="translate(0.537476)"/>
            </clipPath>
        </symbol>

         <symbol id='cloud_temp'>
           <g clip-path="url(#clip0_1123_998)">
                <path d="M5.27585 20.0841C4.07297 19.8644 2.92841 19.2726 2.0107 18.3958C1.40445 17.8166 1.06242 17.353 0.695991 16.614C-0.418658 14.3659 -0.184725 11.8593 1.32782 9.84402C1.96065 9.00081 2.9931 8.19375 3.9178 7.81947L4.30474 7.66287L4.30685 7.18734C4.31806 4.20219 6.33011 1.45766 9.20205 0.509772C9.88506 0.28433 10.3652 0.197005 11.1317 0.158755C13.1934 0.0558871 15.1804 0.853163 16.6215 2.36152C16.9815 2.7384 17.5725 3.49927 17.6319 3.6625C17.6414 3.68862 17.8716 3.60089 18.1433 3.46754C18.8274 3.13184 19.3012 3.0222 20.0548 3.02519C20.8252 3.02823 21.2892 3.13741 21.9849 3.47924C22.4387 3.70219 22.5945 3.81858 23.0503 4.27504C23.6386 4.86417 23.933 5.34811 24.1755 6.12438C24.3525 6.69096 24.3575 7.9068 24.1853 8.48065L24.0741 8.85087L24.3489 8.91431C25.3677 9.14947 26.5855 9.92087 27.2954 10.7807C29.458 13.4 28.9344 17.2688 26.1597 19.1716C25.7161 19.4758 24.8904 19.8609 24.3545 20.0134L23.9151 20.1385L14.7961 20.1479C7.49071 20.1555 5.59743 20.1428 5.27627 20.0841H5.27585ZM15.523 18.635C16.9902 18.163 18.0081 16.9389 18.2374 15.3708C18.3701 14.4635 18.1189 13.4517 17.5573 12.6319L17.3971 12.398V9.97449C17.3971 7.26511 17.3817 7.12859 17.0234 6.44666C15.9044 4.31721 12.7778 4.32563 11.6396 6.46115C11.3119 7.07588 11.3001 7.19521 11.2988 9.89841L11.2967 12.3622L11.0476 12.7468C10.2754 13.9388 10.1982 15.3389 10.833 16.6389C11.0466 17.0764 11.1738 17.2506 11.5727 17.6522C11.9783 18.0605 12.1383 18.1779 12.5858 18.3953C13.2754 18.7303 13.7348 18.8282 14.4879 18.8005C14.9201 18.7846 15.1937 18.7409 15.5229 18.635L15.523 18.635ZM13.8447 17.0152C12.5533 16.6864 11.8376 15.3444 12.3032 14.1245C12.356 13.986 12.5045 13.7109 12.6332 13.5132C13.0337 12.8978 13.0333 12.901 13.0347 10.1003C13.0368 7.80651 13.044 7.58891 13.1382 7.3819C13.5244 6.53166 14.6568 6.32983 15.2788 7.00039C15.6447 7.39478 15.6321 7.29 15.6629 10.2083C15.6937 13.1341 15.676 12.987 16.0627 13.5491C16.6491 14.4013 16.6583 15.41 16.0867 16.1887C15.8626 16.4939 15.4189 16.8209 15.0578 16.947C14.7114 17.0678 14.171 17.0982 13.8447 17.0152ZM14.9297 16.047C15.6887 15.6688 15.883 14.6852 15.324 14.0502C15.2048 13.9148 15.0309 13.7723 14.9375 13.7336L14.7678 13.6633V11.884V10.1046L14.6204 9.98862C14.3573 9.7817 14.0485 9.86499 13.9308 10.1746C13.8955 10.2675 13.872 10.9791 13.8709 11.9882L13.8688 13.6489L13.6245 13.7971C12.9385 14.2131 12.8368 15.2209 13.4219 15.8048C13.8401 16.2222 14.398 16.3118 14.9294 16.047H14.9297Z" />
            </g>
            <clipPath id="clip0_1123_998">
                <rect fill="white" transform="translate(0 0.149902)"/>
            </clipPath>
        </symbol>

        <symbol id='cloud_water'>
            <path d="M5.27586 20.0841C4.07297 19.8644 2.92841 19.2726 2.0107 18.3958C1.40445 17.8166 1.06242 17.353 0.695992 16.614C-0.418658 14.3659 -0.184725 11.8593 1.32782 9.84401C1.96065 9.0008 2.9931 8.19375 3.91781 7.81947L4.30474 7.66286L4.30686 7.18733C4.31806 4.20218 6.33011 1.45764 9.20205 0.509759C9.88506 0.284335 10.3652 0.196997 11.1317 0.158755C13.1934 0.0558872 15.1804 0.853147 16.6215 2.36152C16.9815 2.73838 17.5725 3.49926 17.6319 3.66249C17.6414 3.68861 17.8716 3.60087 18.1433 3.46751C18.8274 3.13181 19.3012 3.02219 20.0548 3.02518C20.8252 3.02822 21.2892 3.1374 21.9849 3.47923C22.4387 3.70218 22.5945 3.81857 23.0503 4.27503C23.6386 4.86416 23.933 5.3481 24.1755 6.12438C24.3525 6.69095 24.3575 7.90678 24.1853 8.48063L24.0741 8.85086L24.3489 8.91431C25.3677 9.14947 26.5855 9.92086 27.2954 10.7807C29.458 13.4 28.9344 17.2688 26.1597 19.1716C25.7162 19.4758 24.8904 19.8609 24.3545 20.0134L23.9151 20.1385L14.7961 20.1479C7.49072 20.1555 5.59743 20.1428 5.27627 20.0841H5.27586ZM15.4605 17.2341C17.1614 16.6604 18.2265 14.9384 17.933 13.2371C17.8861 12.9655 17.77 12.5191 17.6751 12.2451C17.4405 11.568 16.5629 9.79832 15.9713 8.80972C15.3481 7.76822 14.3767 6.29221 14.3144 6.29221C14.2485 6.29221 13.3834 7.59273 12.758 8.63184C11.3996 10.8888 10.6279 12.7507 10.6279 13.7709C10.6279 15.1639 11.5183 16.5364 12.7857 17.0971C13.6162 17.4644 14.6244 17.5161 15.4605 17.2341Z"/>
        </symbol>

        <symbol id='cloud_vpd'>
            <path d="M5.27587 20.0841C4.07298 19.8644 2.92842 19.2726 2.01071 18.3958C1.40446 17.8166 1.06243 17.353 0.696001 16.614C-0.418648 14.3659 -0.184741 11.8594 1.3278 9.84402C1.96064 9.00081 2.99311 8.19375 3.91782 7.81947L4.30475 7.66286L4.30684 7.18733C4.31805 4.20218 6.33012 1.45764 9.20206 0.509759C9.88507 0.284335 10.3652 0.196997 11.1317 0.158755C13.1934 0.0558872 15.1804 0.853147 16.6215 2.36152C16.9815 2.73838 17.5725 3.49926 17.6319 3.66249C17.6414 3.68861 17.8716 3.60088 18.1434 3.46753C18.8275 3.13183 19.3012 3.02221 20.0548 3.02519C20.8252 3.02823 21.2892 3.1374 21.9849 3.47923C22.4387 3.70218 22.5945 3.81857 23.0503 4.27503C23.6386 4.86416 23.933 5.3481 24.1756 6.12438C24.3526 6.69095 24.3575 7.9068 24.1853 8.48064L24.0741 8.85086L24.3489 8.91431C25.3677 9.14947 26.5855 9.92087 27.2954 10.7807C29.458 13.4 28.9344 17.2688 26.1598 19.1716C25.7162 19.4758 24.8904 19.8609 24.3545 20.0134L23.9151 20.1385L14.7961 20.1479C7.49073 20.1555 5.59741 20.1428 5.27625 20.0841H5.27587ZM8.85243 16.3483C9.05717 15.8136 11.2432 9.82351 11.2432 9.79712C11.2432 9.77714 10.9318 9.76078 10.5512 9.76078H9.85914L9.71524 10.1664C9.63607 10.3895 9.22982 11.5645 8.81247 12.7775C8.3951 13.9906 8.04503 14.9917 8.0345 15.0022C8.02393 15.0127 7.75966 14.2799 7.44717 13.3738C7.13468 12.4677 6.72526 11.2841 6.53733 10.7435L6.19567 9.76078H5.50264C5.04793 9.76078 4.80961 9.78135 4.80961 9.82061C4.80961 9.86552 6.79351 15.3188 7.15385 16.2643L7.21247 16.4182H8.01906C8.61276 16.4182 8.83272 16.3997 8.85243 16.3483ZM13.3691 15.1682V13.9182L14.2223 13.8816C15.3639 13.8326 15.7418 13.7257 16.2615 13.3048C16.974 12.7278 17.098 11.402 16.512 10.6267C16.2546 10.286 15.9641 10.0848 15.495 9.92194C15.1602 9.80571 15.0106 9.79391 13.6069 9.77295L12.0824 9.75019V13.0842V16.4182H12.7258H13.3691V15.1682ZM13.3691 11.835V10.8797H14.0982C14.9029 10.8797 15.1179 10.934 15.3176 11.1879C15.5786 11.5197 15.597 12.0544 15.3594 12.4072C15.1612 12.7017 14.9936 12.7518 14.1384 12.772L13.3691 12.7902V11.835ZM21.4575 16.2333C22.5685 15.8656 23.3488 15.0177 23.5784 13.9287C23.9114 12.3499 23.2547 10.8097 21.9846 10.1907C21.2527 9.83401 21.0632 9.80389 19.3692 9.77502L17.8447 9.74904V13.0888V16.4285L19.4252 16.4057C20.9577 16.3836 21.0193 16.3784 21.4575 16.2333ZM19.1874 13.0895V10.8797L19.6489 10.8814C20.6936 10.8853 21.3169 11.0674 21.7243 11.4878C22.494 12.2819 22.4951 13.937 21.7267 14.7055C21.3044 15.1278 20.7313 15.2983 19.7329 15.2989L19.1875 15.2994L19.1874 13.0895Z"/>
        </symbol>

        <symbol id='icon-sun'>
            <g clip-path="url(#clip0_890_409)">
                <path d="M15.8659 0.0468564C16.0734 0.128888 16.2227 0.304669 16.2642 0.5117L17.0899 4.72654L21.567 5.49998C21.7869 5.53904 21.9736 5.67967 22.0607 5.87498C22.1479 6.07029 22.123 6.29295 21.9944 6.46873L19.4094 9.99998L21.9944 13.5273C22.123 13.7031 22.1479 13.9258 22.0607 14.1211C21.9736 14.3164 21.7869 14.457 21.567 14.4961L17.0899 15.2734L16.2642 19.4883C16.2227 19.6953 16.0734 19.8711 15.8659 19.9531C15.6584 20.0351 15.4219 20.0117 15.2352 19.8906L11.4884 17.457L7.74166 19.8906C7.55494 20.0117 7.31843 20.0351 7.11097 19.9531C6.90351 19.8711 6.75414 19.6953 6.71264 19.4883L5.88694 15.2734L1.4099 14.4961C1.18999 14.457 1.00327 14.3164 0.916134 14.1211C0.829 13.9258 0.853896 13.7031 0.982523 13.5273L3.56751 9.99998L0.982523 6.47264C0.853896 6.29686 0.829 6.0742 0.916134 5.87889C1.00327 5.68357 1.18999 5.54295 1.4099 5.50389L5.88694 4.72654L6.71264 0.5117C6.75414 0.304669 6.90351 0.128888 7.11097 0.0468564C7.31843 -0.0351748 7.55494 -0.0117373 7.74166 0.109356L11.4884 2.54295L15.2352 0.109356C15.4219 -0.0117373 15.6584 -0.0351748 15.8659 0.0468564ZM15.4717 9.99998C15.4717 12.0703 13.6875 13.75 11.4884 13.75C9.28933 13.75 7.50515 12.0703 7.50515 9.99998C7.50515 7.92967 9.28933 6.24998 11.4884 6.24998C13.6875 6.24998 15.4717 7.92967 15.4717 9.99998ZM16.7995 9.99998C16.7995 7.23826 14.422 4.99998 11.4884 4.99998C8.55491 4.99998 6.17739 7.23826 6.17739 9.99998C6.17739 12.7617 8.55491 15 11.4884 15C14.422 15 16.7995 12.7617 16.7995 9.99998Z"/>
            </g>
        <clipPath id="clip0_890_409">
            <rect fill="white" transform="translate(0.866272)
            "/>
        </clipPath>
        </symbol>

        <symbol id='total_radiation'>
            <g clip-path="url(#clip0_890_413)">
                <path d="M11.8217 19.9358C11.7512 19.8941 11.6728 19.8095 11.6474 19.7477C11.622 19.686 11.4765 18.9923 11.3241 18.2063C11.1717 17.4203 11.0442 16.7748 11.0409 16.7719C11.0376 16.7689 10.3517 16.6491 9.51679 16.5055C8.68189 16.362 7.94511 16.2249 7.8795 16.2008C7.73992 16.1496 7.60407 15.9591 7.60385 15.8143C7.60385 15.6933 7.69316 15.5605 8.67745 14.2218C9.09335 13.6562 9.43363 13.1785 9.43363 13.1603C9.43363 13.1421 9.04803 12.6006 8.57675 11.957C7.65158 10.6935 7.60361 10.6209 7.60385 10.4853C7.60385 10.3506 7.74449 10.1598 7.8795 10.1107C7.94511 10.0868 8.68189 9.94993 9.51679 9.80654C10.3517 9.66314 11.0378 9.54313 11.0415 9.53984C11.0451 9.53656 11.1724 8.89076 11.3243 8.10475C11.4762 7.31875 11.6269 6.61919 11.6592 6.55018C11.7321 6.39437 11.9374 6.2884 12.1141 6.31539C12.1935 6.32753 12.755 6.66706 13.5452 7.1809C14.2604 7.64595 14.8616 8.02645 14.8813 8.02645C14.9009 8.02645 15.3816 7.7239 15.9495 7.35412C17.373 6.4272 17.5794 6.30368 17.7048 6.30385C17.8595 6.304 18.0619 6.43152 18.1167 6.56336C18.1424 6.62512 18.2881 7.31875 18.4405 8.10475C18.5929 8.89076 18.7201 9.53657 18.7232 9.53989C18.7263 9.5432 19.4119 9.66257 20.2468 9.80517C21.0817 9.94776 21.8248 10.0897 21.8981 10.1207C22.0631 10.1903 22.1761 10.384 22.1477 10.5486C22.1351 10.6214 21.7656 11.164 21.2284 11.8987C20.7342 12.5743 20.33 13.14 20.33 13.1558C20.33 13.1716 20.7339 13.7354 21.2277 14.4088C21.7852 15.1691 22.1336 15.6806 22.147 15.7586C22.1761 15.9274 22.065 16.12 21.8981 16.1903C21.8248 16.2211 21.0817 16.3637 20.2468 16.507C19.4119 16.6504 18.7263 16.7698 18.7232 16.7725C18.72 16.7751 18.5933 17.4203 18.4414 18.2063C18.2894 18.9923 18.1383 19.6919 18.1054 19.7609C18.0312 19.9168 17.8259 20.0227 17.6497 19.9957C17.5707 19.9837 17.0051 19.6418 16.2147 19.1284C15.4588 18.6374 14.8855 18.29 14.8514 18.3023C14.819 18.314 14.2206 18.6956 13.5216 19.1503C12.1501 20.0425 12.0671 20.0809 11.8217 19.9358ZM15.2679 16.561C15.7514 16.5088 16.3229 16.3318 16.7325 16.1073C17.1757 15.8644 17.789 15.2835 18.0301 14.8783C18.407 14.2449 18.5811 13.4767 18.5002 12.8044C18.3973 11.9496 18.0258 11.2522 17.3567 10.6577C16.125 9.5634 14.2229 9.42694 12.8327 10.3331C11.8214 10.9924 11.2566 12.0037 11.2566 13.1555C11.2566 13.8246 11.4512 14.4707 11.8109 14.9958C12.0667 15.3693 12.6767 15.9217 13.0519 16.1195C13.5616 16.3883 14.1997 16.5602 14.8194 16.5956C14.8652 16.5983 15.067 16.5827 15.2679 16.561ZM14.4744 15.6965C13.4915 15.557 12.6221 14.8689 12.3033 13.978C11.8782 12.7898 12.4402 11.4703 13.616 10.8965C14.1427 10.6394 14.6243 10.5517 15.1806 10.6114C16.3065 10.7323 17.2405 11.4954 17.5277 12.5291C17.6196 12.8599 17.6203 13.4469 17.5292 13.782C17.4046 14.2404 17.1872 14.589 16.7959 14.958C16.2816 15.4429 15.7667 15.6651 15.0454 15.7131C14.8754 15.7244 14.6185 15.7169 14.4745 15.6965H14.4744ZM3.56956 5.54021V1.52698H2.21792H0.866272V0.76349V0H4.58849H8.31071V0.76349V1.52698H6.95908H5.60743V5.54021V9.55343H4.58849H3.56956V5.54021Z"/>
            </g>
            <clipPath id="clip0_890_413">
                <rect fill="white" transform="translate(0.866272)"/>
            </clipPath>
        </symbol>

        <symbol id='water_ec'>
            <g clip-path="url(#clip0_1123_973)">
                <path d="M6.22629 20.1269C5.26998 20.016 4.59942 19.8203 3.81603 19.4233C1.84655 18.4253 0.493057 16.4662 0.253812 14.2672C0.175791 13.5501 0.211229 13.0262 0.393717 12.199C0.915283 9.83505 3 5.78207 6.02176 1.25737C6.80076 0.0909411 6.80093 0.0907043 6.87057 0.179979C7.24281 0.657115 8.85298 3.14777 9.66483 4.50221C11.0202 6.76339 12.2168 9.1416 12.7589 10.6515C13.3018 12.1639 13.4714 13.098 13.3824 14.0865C13.2763 15.2641 12.9341 16.2468 12.3001 17.1942C11.1919 18.8504 9.49613 19.8847 7.51759 20.1114C7.18851 20.1491 6.49014 20.1575 6.22629 20.1269ZM6.56761 18.1619C6.62631 18.1232 7.58826 16.7549 8.71796 15.1031C10.5181 12.4712 10.7621 12.097 10.7621 11.9682C10.7621 11.7801 10.6989 11.6651 10.5432 11.5702C10.4252 11.4983 10.3341 11.4941 8.87606 11.494C7.42608 11.4938 7.33488 11.4897 7.35283 11.4253C7.36334 11.3876 7.58577 10.8233 7.84713 10.1713C8.10849 9.5193 8.32233 8.94103 8.32233 8.88624C8.32233 8.83146 8.29471 8.73324 8.26097 8.66796C8.14408 8.44193 8.10734 8.43791 6.15899 8.43807C4.47143 8.43822 4.37883 8.44193 4.26009 8.51433C4.19144 8.55619 4.1168 8.62495 4.09423 8.66711C4.07166 8.70928 3.90892 9.82562 3.73259 11.1479C3.37928 13.7971 3.38374 13.6756 3.63356 13.8606C3.74041 13.9397 3.79349 13.9429 5.21438 13.9536L6.68467 13.9648L6.65835 14.0696C6.5312 14.5762 5.88631 17.6568 5.88469 17.7654C5.87936 18.1178 6.28096 18.3509 6.56759 18.1619H6.56761Z"/>
            </g>
            <clipPath id="clip0_1123_973">
                <rect fill="white" transform="translate(0.214844 0.145508)"/>
            </clipPath>
        </symbol>

        <symbol id='water_ph'>
           <g clip-path="url(#clip0_890_364)">
                <path d="M6.29982 19.9814C5.29763 19.8705 4.59488 19.6748 3.77393 19.2778C1.70999 18.2798 0.291571 16.3207 0.0408491 14.1217C-0.04093 13.4046 -0.00379542 12.8807 0.187447 12.0535C0.734017 9.68956 2.91875 5.63657 6.08547 1.11187C6.90181 -0.0545556 6.902 -0.0548002 6.97498 0.0344656C7.36506 0.511622 9.05248 3.00228 9.90329 4.35671C11.3237 6.61789 12.5777 8.99611 13.1458 10.506C13.7147 12.0184 13.8924 12.9525 13.7991 13.941C13.688 15.1186 13.3294 16.1013 12.665 17.0487C11.5036 18.7049 9.7265 19.7392 7.65305 19.9659C7.30818 20.0036 6.57632 20.0119 6.29982 19.9814ZM2.74831 15.268V13.9378L2.94425 14.1248C3.72701 14.8717 5.1448 14.682 5.77517 13.7459C6.32679 12.9268 6.31719 11.6815 5.75312 10.8888C5.35724 10.3326 4.76344 10.0635 4.02107 10.1039C3.5738 10.1282 3.29106 10.243 2.97403 10.5291L2.74831 10.7328V10.4333V10.1338H2.05035H1.35237V13.366V16.5982H2.05035H2.74831V15.268ZM3.50206 13.3874C3.00721 13.2748 2.7127 12.8113 2.7575 12.2157C2.80025 11.6475 3.19813 11.27 3.75422 11.27C4.03341 11.27 4.20693 11.3355 4.42476 11.5233C4.64538 11.7135 4.73962 11.9543 4.73962 12.3278C4.73962 12.7215 4.64678 12.9429 4.38903 13.1641C4.12154 13.3935 3.84029 13.4644 3.50206 13.3874ZM8.33216 13.3856V12.2494H9.4202H10.5082V13.3856V14.5218H11.2062H11.9042V11.7793V9.03681H11.2062H10.5082V10.1142V11.1916H9.4202H8.33216V10.1142V9.03681H7.63418H6.9362V11.7793V14.5218H7.63418H8.33216V13.3856Z" />
            </g>
            <clipPath id="clip0_890_364">
                <rect fill="white"/>
            </clipPath>
        </symbol>

        <symbol id='water_temp'>
            <g clip-path="url(#clip0_890_359)">
                <path d="M6.29969 19.9814C5.29751 19.8705 4.59479 19.6748 3.77383 19.2778C1.70988 18.2798 0.291437 16.3207 0.0407154 14.1217C-0.0410482 13.4046 -0.00391022 12.8807 0.187332 12.0535C0.733918 9.68956 2.91864 5.63657 6.08535 1.11187C6.9017 -0.0545556 6.9019 -0.0548002 6.97488 0.0344656C7.36497 0.511622 9.05238 3.00229 9.90318 4.35672C11.3236 6.6179 12.5776 8.99611 13.1456 10.506C13.7146 12.0184 13.8923 12.9525 13.799 13.941C13.6879 15.1186 13.3292 16.1013 12.6649 17.0487C11.5035 18.7049 9.72639 19.7392 7.65295 19.9659C7.30809 20.0036 6.5762 20.012 6.29969 19.9814ZM7.47648 18.0318C8.88285 17.7741 9.93274 16.6912 10.0945 15.3314C10.1807 14.6067 9.95582 13.7786 9.51872 13.2114L9.39957 13.0567V11.151C9.39957 9.3825 9.39366 9.22348 9.31859 8.94316C8.97853 7.67441 7.68449 6.90488 6.34606 7.17547C5.46604 7.35338 4.71226 8.03851 4.44904 8.89969C4.38595 9.10608 4.37513 9.37585 4.36028 11.1104L4.34338 13.0861L4.2211 13.2557C4.04751 13.4964 3.83023 13.9495 3.74549 14.2475C3.64584 14.5979 3.64793 15.4209 3.74937 15.7732C4.20312 17.3489 5.82835 18.3338 7.47648 18.0318ZM6.44341 16.6625C5.91543 16.5253 5.50468 16.194 5.26237 15.7097C5.11858 15.4224 5.10903 15.3801 5.10903 15.0311C5.10903 14.5813 5.17823 14.3673 5.45376 13.9648C5.82732 13.4191 5.80305 13.5958 5.82693 11.2504C5.85046 8.93959 5.83283 9.07678 6.14235 8.79626C6.39493 8.56736 6.54621 8.50956 6.89504 8.50868C7.15786 8.50809 7.23109 8.52368 7.39497 8.61561C7.50057 8.67484 7.64324 8.78845 7.71202 8.86807C7.96077 9.15604 7.96253 9.17307 7.96253 11.2931C7.96253 13.5039 7.95525 13.4496 8.32521 13.988C8.58174 14.3614 8.66052 14.5972 8.66052 14.9919C8.66052 15.5147 8.4842 15.9057 8.08985 16.2577C7.98108 16.3548 7.81611 16.4712 7.72327 16.5164C7.33933 16.7033 6.82612 16.7619 6.44341 16.6625ZM7.38774 15.8988C7.64037 15.7808 7.84579 15.5339 7.92545 15.2527C7.98188 15.0535 7.95167 14.7303 7.861 14.563C7.76211 14.3805 7.52759 14.1461 7.38921 14.0914L7.26844 14.0437L7.25616 12.6599L7.24391 11.2762L7.14436 11.1751C7.00863 11.0373 6.76785 11.0351 6.62618 11.1702L6.52539 11.2664V12.659C6.52539 13.7465 6.51422 14.0518 6.47407 14.0526C6.3438 14.0551 6.0371 14.3291 5.9293 14.5393C5.62164 15.1394 5.94171 15.8169 6.61349 15.9875C6.8892 16.0576 7.0995 16.0335 7.3876 15.8988H7.38774Z"/>
            </g>
            <clipPath id="clip0_890_359">
                <rect fill="white"/>
            </clipPath>
        </symbol>

        <symbol id="pump_state">
            <g id="pump_state_2 1" clip-path="url(#clip0_890_384)">
                <g id="layer1">
                    <path id="path217" d="M13.2709 19.3365L11.8182 17.8376V12.6075V7.37743L13.3171 5.92461L14.816 4.47182H20.4989C24.3129 4.47182 26.3612 4.65119 26.7273 5.01727C27.4909 5.78086 27.4909 19.5264 26.7273 20.29C26.3607 20.6565 24.3026 20.8355 20.4528 20.8355H14.7238L13.2709 19.3365ZM25.2272 12.6536V6.51728H20.909C17.3737 6.51728 16.5909 6.64088 16.5909 7.19909C16.5909 7.73508 17.3443 7.90931 20.1136 8.01367C23.2355 8.13132 23.6364 8.2455 23.6364 9.01728C23.6364 9.78905 23.2355 9.90323 20.1136 10.0209C17.3443 10.1252 16.5909 10.2995 16.5909 10.8355C16.5909 11.3714 17.3443 11.5457 20.1136 11.65C23.2355 11.7677 23.6364 11.8819 23.6364 12.6536C23.6364 13.4254 23.2355 13.5396 20.1136 13.6572C17.3443 13.7616 16.5909 13.9358 16.5909 14.4718C16.5909 15.0078 17.3443 15.182 20.1136 15.2864C23.2629 15.4051 23.6364 15.5135 23.6364 16.3091C23.6364 17.113 23.3091 17.1991 20.2541 17.1991C18.3938 17.1991 16.7454 17.4036 16.5909 17.6536C15.9257 18.73 17.04 19.0458 21.0598 18.9202L25.2272 18.79V12.6536ZM4.18178 17.5627C3.88177 17.2627 3.63637 16.6491 3.63637 16.1991C3.63637 15.2815 2.29495 15.086 1.49415 15.8868C0.510752 16.8702 0 15.765 0 12.6536C0 9.54229 0.510752 8.43711 1.49415 9.42051C2.29495 10.2213 3.63637 10.0257 3.63637 9.10819C3.63637 7.70814 4.63017 7.19909 7.36359 7.19909H10V12.6536V18.1082H7.36359C5.91359 18.1082 4.48177 17.8627 4.18178 17.5627ZM5.45452 4.10819C5.45452 3.40819 5.22687 2.60782 4.94864 2.3296C4.05635 1.4373 4.99246 0.835449 7.27268 0.835449C9.55289 0.835449 10.489 1.4373 9.59672 2.3296C9.31851 2.60782 9.09089 3.40819 9.09089 4.10819C9.09089 5.29001 8.961 5.38091 7.27268 5.38091C5.58438 5.38091 5.45452 5.29 5.45452 4.10819Z"/>
                </g>
            </g>
            <clipPath id="clip0_890_384">
                <rectz fill="white" transform="translate(0 0.835449)"/>
            </clipPath>
        </symbol>

    </defs>
</svg>
